/* XPM */
static char *_d17ee4ae3034d6bc71b8b2ffb4e34baZtb4jJoXh2x8jX9t[] = {
/* columns rows colors chars-per-pixel */
"50 50 125 2 ",
"   c #1F3037",
".  c #202F34",
"X  c #213035",
"o  c #21343A",
"O  c #21383E",
"+  c #1F3B42",
"@  c #203D45",
"#  c #1F424C",
"$  c #1F4A55",
"%  c #1F4E5B",
"&  c #1E525F",
"*  c #20424B",
"=  c #214752",
"-  c #214953",
";  c #20515F",
":  c #1E5462",
">  c #1F5967",
",  c #1F5D6D",
"<  c #1F5F71",
"1  c #205464",
"2  c #205867",
"3  c #205B6C",
"4  c #205F70",
"5  c #1F6274",
"6  c #1F677C",
"7  c #1F697D",
"8  c #206274",
"9  c #1F6E83",
"0  c #1F7186",
"q  c #1F758C",
"w  c #1F7B94",
"e  c #1F7F98",
"r  c #206D83",
"t  c #207087",
"y  c #20748A",
"u  c #207A92",
"i  c #1E829C",
"p  c #20829D",
"a  c #1E86A2",
"s  c #1E89A5",
"d  c #1F8DAA",
"f  c #1F92AF",
"g  c #1F94B3",
"h  c #1F98B7",
"j  c #1F96B8",
"k  c #1E9BBC",
"l  c #2185A2",
"z  c #2089A6",
"x  c #208DAC",
"c  c #2190AE",
"v  c #218FB0",
"b  c #2094B5",
"n  c #209ABC",
"m  c #1E9EC1",
"M  c #1EA2C5",
"N  c #1EA5CA",
"B  c #1EA9CD",
"V  c #1EAED3",
"C  c #1DB1D7",
"Z  c #1EB4D9",
"A  c #1CB4DB",
"S  c #1EB3DD",
"D  c #1DB5DC",
"F  c #1FB4DC",
"G  c #1CB6DC",
"H  c #1DB5DE",
"J  c #1EB6DF",
"K  c #1EB4DB",
"L  c #20A2C6",
"P  c #20A2C6",
"I  c #20ABD2",
"U  c #20AFD7",
"Y  c #20B4DE",
"T  c #1EB7E0",
"R  c #1EB7E0",
"E  c #1FB8E1",
"W  c #1DB9E2",
"Q  c #1FB8E2",
"!  c #1EBAE2",
"~  c #1EBAE3",
"^  c #1EBBE4",
"/  c #1FBCE7",
"(  c #1EBDE7",
")  c #1FBAE3",
"_  c #1FBEE8",
"`  c #1EBFE9",
"'  c #1EBFEB",
"]  c #1EBFED",
"[  c #1EBFEA",
"{  c #20B9E3",
"}  c #20B8E1",
"|  c #20BEEB",
" . c #1EC0E7",
".. c #1DC0EB",
"X. c #1EC1EA",
"o. c #1FC0EC",
"O. c #1EC1EC",
"+. c #1DC3ED",
"@. c #1FC2ED",
"#. c #1CC1EE",
"$. c #1EC0EE",
"%. c #1FC1EF",
"&. c #1DC2EF",
"*. c #1CC3EF",
"=. c #1BC4EF",
"-. c #1DC4EE",
";. c #1CC5EE",
":. c #1EC4EE",
">. c #1EC5EF",
",. c #1DC3EE",
"<. c #1DC2F0",
"1. c #1CC3F0",
"2. c #1EC3F0",
"3. c #1EC3F1",
"4. c #1DC4F0",
"5. c #1CC5F0",
"6. c #1DC4F1",
"7. c #1FC4F1",
"8. c #1EC5F1",
"9. c #1DC6F1",
"0. c #1EC5F2",
"q. c #1DC4F0",
"w. c #20C1EF",
"e. c #21C3F1",
"r. c #20C2F0",
/* pixels */
">.*.4.4.4.4.4.4.4.4.` 8 N 4.4.4.4.4.4.4.4.4.4.4.4.4.4.4.4.4.4.4.4.4.4.4.4.F 9 / ;.4.5.4.4.5.4.4.4.4.",
"4.4.4.4.4.4.4.4.4.<.*.y Z 4.4.4.4.4.4.4.4.4.4.4.4.4.4.4.4.4.4.4.4.4.4.4.5.F w ` <.4.4.4.4.4.4.4.4.4.",
"4.4.4.4.4.4.4.4.*.>.*.i V 4.<.4.4.4.4.4.4.4.*.*.4.4.>.4.4.4.4.4.4.4.4.4.4.F d <.4.4.4.4.4.4.4.>.4.4.",
"4.4.4.4.4.4.4.4.*.*.*.g V 4.4.4.4.4.4.4.>.*.>.*.4.4.<.4.4.;.;.4.4.4.4.4.4.R h 1.4.4.<.4.4.4.4.4.0.4.",
"*.>.4.4.4.4.4.4.*.*.| d m A F Z B M k g d b k M M N N N M M M M k k k k m g d | F B m b s i i s v k ",
"z z z a i i a s s d c a a k h z i w y 7 9 7 y u 7 0 b s p 0 7 0 9 9 9 0 y q w u w e u q q 0 8 5 9 7 ",
"4.4.4.4.4.4.4.4.4.4.4.4.*.>.4.4.4.4.4.4.<.4.4.4.M k 4.4.4.4.4.4.4.4.4.>.;.>.4.4.*.4.4.>.>.4.4.4.<.4.",
"4.4.4.4.4.4.4.4.4.4.4.4.4.4.4.4.4.4.4.4.<.4.4.4.M m >.4.4.4.4.4.4.4.;.4.4.4.4.4.4.<.4.4.4.4.4.4.4.4.",
"4.4.4.4.4.4.4.4.4.4.4.4.4.4.4.4.4.4.4.4.4.4.4.4.B M <.4.4.4.>.4.4.4.4.4.4.4.4.<.4.4.4.4.4.*.4.4.4.4.",
"4.4.4.4.4.*.4.4.4.4.4.4.w.*.4.4.4.4.4.*.4.<.4.4.B m 4.4.4.4.4.4.4.4.4.4.4.4.<.*.>.4.<.<.4.4.4.4.*.4.",
"*.*.*.w.<.] ` ` ] ` *.` ] *.*.*.` *.*.*.>.>.<.<.m 6 >.<.<.4.<.4.>.4.<.*.>.>.*.*.*.*.<.<.*.` ` / / ^ ",
"u e w u e i q 9 y q y 8 y u y 9 8 y i i a l d d w - i e u i b n b c a p e 9 y d u y 0 9 9 < # + o o ",
"V V V V I Z F F F F F s M F C I B B V V V V V V V V V V V Z F R W Y V V B h 9 Z V V B B B N B B N B ",
"4.*.4.4.4.>.4.4.4.4.<.a V 4.4.4.*.*.4.4.4.4.4.4.4.4.4.4.4.4.>.4.4.4.4.4.4.F e ] *.<.>.*.4.4.4.;.4.4.",
"4.4.*.*.4.4.4.4.4.4.<.d B 4.4.4.4.4.4.4.4.4.4.4.4.4.4.4.;.>.<.4.4.4.4.4.4.W d ] 4.4.*.<.4.4.4.4.4.4.",
"4.*.4.4.4.4.4.4.4.5.4.h V 4.4.4.4.4.4.4.4.4.4.4.4.4.4.<.5.4.4.4.4.4.4.4.4.W d X.4.4.4.4.4.4.4.4.4.4.",
"4.4.4.4.4.4.4.4.*.>.*.M F 4.4.4.4.4.>.<.*.*.4.1.<.4.<.4.4.4.4.4.*.*.<.*.w.{ x *.*.4.4.4.4.4.4.5.4.4.",
"4.4.4.0.4.4.4.>.<.*.>.h K 4.4.<.X.{ Z V B V Z V V V V C W ` *.w.*.*.*.*.4.F z W { W { { F F F C F X.",
"e w u y 0 r 9 6 , % + % 0 0 7 7 8 r q e i e q 7 X @ % $ @ @ = * * # - * @ O o   o o @ * = = - - # * ",
"4.4.4.4.4.4.4.4.4.>.*.*.5.5.>.4.9.*.*.*.4.4.4.4.g k >.*.*.4.4.4.4.4.4.4.4.4.4.4.4.4.4.>.<.4.>.4.>.*.",
"4.4.4.4.4.4.5.4.4.4.4.4.4.4.<.*.9.0.4.4.4.4.5.4.V B 4.4.>.4.4.4.4.>.4.1.4.4.4.4.4.4.4.4.4.4.4.4.*.4.",
"4.4.4.4.4.4.4.4.4.4.4.4.4.4.>.4.4.4.4.5.4.4.4.4.V B 4.>.<.4.4.4.4.4.;.<.4.4.4.4.4.4.4.*.4.4.<.4.>.4.",
"4.4.4.4.4.4.4.4.4.4.>.>.4.4.4.4.4.4.4.4.4.4.4.4.V B 4.4.4.4.4.4.4.4.4.4.4.4.>.*.4.4.4.4.4.4.4.4.4.<.",
"4.4.4.*.4.4.4.4.4.4.4.1.4.5.>.4.4.4.4.4.4.4.4.4.R K 4.4.4.4.4.4.4.4.e.4.4.4.*.*.4.4.4.4.4.4.4.4.4.4.",
"V V V V V V V V B B B M M g s k k k k k k N B k e f B B N N k f d d d a i e w e u t i b d d s d g M ",
"B B B B B I B B B N M e b h h b g h x a d k M k k M M N N P k g b h g j g a - b k h h b h g s e x n ",
"4.4.4.<.4.4.*.>.5.4.5.N F <.4.4.*.>.4.4.4.4.4.4.<.4.4.4.4.4.<.<.4.4.4.4.4.Z > W *.*.<.4.*.*.<.>.>.4.",
"4.4.4.4.4.4.4.<.4.4.4.k W >.4.4.4.1.4.4.4.4.4.4.4.4.4.4.4.4.4.<.4.4.4.4.4.F r ` *.>.4.4.4.*.>.4.<.4.",
"4.4.4.4.4.4.4.4.4.;.>.d F 4.4.4.4.4.4.4.4.4.4.4.4.4.4.4.4.4.4.4.4.4.4.4.<.R q X.4.4.4.4.4.4.4.>.4.4.",
"4.4.4.4.4.4.4.4.4.4.4.s B 4.4.4.4.4.4.4.4.4.4.4.4.4.4.4.4.4.4.4.<.<.4.4.4.C p >.4.4.4.4.4.4.4.<.4.4.",
"| X.4.<.>.>.4.4.4.4.4.x M *.4.4.4.4.4.4.<.<.4.4.e.<.4.4.*.*.4.4.*.w.*.*.4.F i >.4.4.4.<.4.4.| *.<.4.",
"% $ : 1 : ; : : : 1 ; * @ - % 1 3 , < , , 3 > % * $ t u i w 0 5 , , - ; 1 $ @ 2 : * * @ o . . X X o ",
"*.4.4.4.4.4.<.4.4.4.4.4.>.4.4.4.4.4.4.4.4.4.4.4.z g *.*.4.4.4.4.4.4.X.<.4.4.4.4.<.*.` V I W { W  .4.",
">.<.4.4.4.4.4.4.4.4.>.4.<.4.4.4.4.4.4.4.4.4.4.4.k N <.*.4.4.4.4.4.4.4.4.<.4.4.4.e.<.4.4.>.4.<.>.4.4.",
"4.4.4.4.4.4.>.>.4.>.4.4.4.4.4.4.4.4.4.4.4.4.4.4.P V *.*.4.4.4.<.4.4.4.4.4.4.4.4.4.4.4.4.4.4.4.4.4.4.",
"4.4.4.4.4.4.<.4.4.<.4.4.4.4.4.4.4.4.4.4.4.4.4.4.M V 4.4.4.4.<.4.4.4.4.4.<.4.4.4.4.4.4.4.4.4.4.4.4.4.",
"4.<.*.4.4.4.4.4.4.4.<.<.4.*.*.>.<.4.4.4.4.4.4.>.m V 5.4.4.4.<.<.4.4.4.4.4.4.<.4.4.4.*.>.4.*.*.*.5.4.",
"/ { { F F C C Y Y K C V Z B P k M C K F F F W Y N P F F F K C Y K K K C K K C K C V V U Z Z C Y F R ",
"B M M k h a q e l e q + > 5 8 5 6 5 7 0 i s b h g s d z a w w w u u p i a u 2 y q u u w u p l z d h ",
"4.4.4.4.4.>.X.X.*.*.^ 1 n *.` ` X./ ` ` X.X.w.4.>.>.4.>.<.*.` ` ] X.<.<.<.K 9 R *.] *.<.<.w.*.*.e.4.",
"4.4.4.4.4.4.4.4.<.<.X., M 4.4.4.4.4.4.4.4.4.4.4.<.4.4.4.4.5.4.4.4.4.4.4.>.F r ` <.<.4.4.4.4.4.4.4.4.",
"4.4.4.4.4.4.4.4.4.4.*.5 B 4.4.4.4.4.4.4.4.4.4.4.4.4.4.<.4.4.4.4.4.4.4.4.1.g < ` 4.4.4.4.4.4.;.4.4.4.",
"*.4.4.4.4.4.4.4.4.4.*.p Y 4.4.4.4.4.4.4.4.4.4.4.4.4.4.5.4.4.4.4.4.4.<.4.4.a 8 <.4.4.4.4.4.4.*.4.4.4.",
"4.4.4.<.>.>.*.*.4.4.{ q V 4.4.4.w./ W X.<.4.4.4.4.4.4.4.4.4.4.4.4.4.4.<.C 9 r *.4.4.4.>.4.4.4.4.4.4.",
"6 5 5 i f c p z g 4 # . , 7 5 & 1 , 5 $ % < 9 q q 0 q q q w q q y 6 & & > * 1 p e r 7 6 > : : > < 8 ",
"Z F <.>.| W W { R *.4.` W Y { W 4.<.*.X.R Z R W w g C m h h m B { ` | *.>.<.4.*.` *.*.4.<./ F A / ` ",
"4.4.4.4.4.4.4.4.<.<.4.5.<.4.>.>.<.4.4.4.4.4.4.4.M N <.*.4.4.4.4.e.4.*.*.4.4.4.>.*.<.4.4.4.4.5.<.4.4.",
"4.4.4.4.4.4.4.4.4.4.*.5.4.4.>.<.4.4.4.4.4.4.4.4.C Z <.<.4.4.4.4.4.4.*.>.4.*.4.>.4.4.4.4.4.4.4.4.4.4.",
"4.4.4.4.4.4.4.4.4.4.4.4.4.4.4.4.4.4.4.4.4.4.4.4.C Z <.4.4.4.4.4.4.4.4.4.4.4.4.4.4.4.4.4.4.4.4.4.4.4.",
"4.4.4.4.4.4.4.4.4.4.4.4.4.4.4.4.4.4.4.4.4.4.4.4.C Z <.4.4.4.4.4.4.4.4.4.4.4.4.4.4.4.4.4.4.4.4.4.4.4."
};
