/* XPM */
static char *_043ab8bba364ba6c24b365c48bd0129xGYQ0vNtEKFw0zSq[] = {
/* columns rows colors chars-per-pixel */
"50 50 132 2 ",
"   c #212F22",
".  c #223323",
"X  c #233C23",
"o  c #234324",
"O  c #244A24",
"+  c #255425",
"@  c #255C26",
"#  c #285E26",
"$  c #245128",
"%  c #265C28",
"&  c #266126",
"*  c #286627",
"=  c #276A27",
"-  c #286B26",
";  c #276428",
":  c #296529",
">  c #276D28",
",  c #286B29",
"<  c #277127",
"1  c #287427",
"2  c #277927",
"3  c #27762A",
"4  c #297429",
"5  c #277829",
"6  c #297C29",
"7  c #27812A",
"8  c #29842A",
"9  c #2A8B2B",
"0  c #2B932C",
"q  c #2C9B2C",
"w  c #2BA52C",
"e  c #2AA62C",
"r  c #2BA52E",
"t  c #2EA52D",
"y  c #2CA62D",
"u  c #2DA72E",
"i  c #2CA12D",
"p  c #2CA82C",
"a  c #2DA82C",
"s  c #2DA92D",
"d  c #2EA92D",
"f  c #2DAA2C",
"g  c #2DAB2D",
"h  c #2CA82E",
"j  c #2DA92F",
"k  c #2EA82F",
"l  c #2DAB2E",
"z  c #2BAE2E",
"x  c #2CAD2C",
"c  c #2EAD2C",
"v  c #2DAE2D",
"b  c #2CAF2D",
"n  c #2CAD2E",
"m  c #2EAC2E",
"M  c #2EAC2F",
"N  c #2FAD2F",
"B  c #2DAE2F",
"V  c #2CAF2F",
"C  c #2DAC2E",
"Z  c #2AB02D",
"A  c #2BB12E",
"S  c #2DB02C",
"D  c #2EB12D",
"F  c #2FB12D",
"G  c #2CB22D",
"H  c #2DB02E",
"J  c #2FB02F",
"K  c #2EB12F",
"L  c #2DB32E",
"P  c #2DB52D",
"I  c #2EB42D",
"U  c #2DB52F",
"Y  c #2EB42F",
"T  c #2EB62E",
"R  c #2FB72F",
"E  c #2DB42E",
"W  c #2FB92E",
"Q  c #2EB82F",
"!  c #2DBA2E",
"~  c #2EBB2F",
"^  c #2EBD2D",
"/  c #2FBD2D",
"(  c #2FBC2F",
")  c #2EBD2F",
"_  c #2EBB2E",
"`  c #30B32F",
"'  c #30B92E",
"]  c #30BA2F",
"[  c #31BC2F",
"{  c #30BF2F",
"}  c #30BD2F",
"|  c #2FB230",
" . c #2FB232",
".. c #2FB731",
"X. c #2EB330",
"o. c #2DBA30",
"O. c #2EBB31",
"+. c #2CBD30",
"@. c #2DBF30",
"#. c #2FBE30",
"$. c #2FBE31",
"%. c #2FBE30",
"&. c #30B130",
"*. c #30B331",
"=. c #30BD30",
"-. c #30BF31",
";. c #30BF32",
":. c #30BF31",
">. c #2EC02D",
",. c #2DC12F",
"<. c #2FC12E",
"1. c #2EC02F",
"2. c #2EC22E",
"3. c #2FC32F",
"4. c #2EC12F",
"5. c #31C12E",
"6. c #30C22F",
"7. c #31C12E",
"8. c #2FC130",
"9. c #2EC031",
"0. c #2EC230",
"q. c #2FC331",
"w. c #2EC132",
"e. c #2FC132",
"r. c #2FC130",
"t. c #31C030",
"y. c #32C131",
"u. c #30C231",
"i. c #31C032",
"p. c #30C233",
"a. c #30C134",
"s. c #31C130",
/* pixels */
"8.8.8.8.8.8.8.1.8.8.) # y 1.u.8.8.8.8.8.u.1.u.8.8.8.1.u.1.u.1.u.8.8.8.u.8.H > o.8.u.8.8.6.{ 8.8.8.8.",
"8.8.8.8.8.8.8.8.8.8.%.1 M 1.1.1.8.8.8.8.8.8.1.u.8.) u.1.u.1.8.8.8.8.8.8.8.*.5 ) 8.8.8.8.6.1.) 8.1.8.",
"8.8.8.8.8.8.8.8.8.8.u.6 M 1.8.8.8.8.8.8.8.8.8.8.8.8.8.8.6.1.8.8.8.8.1.1.8. .9 ) 8.8.8.8.u.6.8.6.3.u.",
"8.8.8.8.8.8.8.8.-.8.u.0 M 8.q.8.8.8.8.8.8.8.8.u.8.8.8.8.u.u.u.8.8.8.8.) 8.P 0 u.8.8.8.8.8.8.8.6.1.1.",
"1.8.8.u.8.u.6.u.1.1.) 9 q M H M a i q 9 9 0 q q i i i i q q i q q q q q q 9 9 P *.a i 9 9 8 8 9 9 q ",
"9 9 8 8 7 7 8 8 8 9 0 8 8 q 0 9 7 5 > = - - > 6 * < 0 8 7 > = 4 = > = 1 1 5 6 6 6 6 4 4 4 , % % = * ",
"1.8.8.8.8.8.u.8.1.u.1.u.1.1.8.8.u.1.u.1.u.1.u.1.i q 6.-.1.u.u.u.8.8.8.8.8.8.8.8.8.8.8.8.a.8.8.8.8.8.",
"8.8.8.8.8.8.8.1.u.1.u.1.q.1.8.8.1.u.1.u.u.u.1.u.q q u.1.u.1.-.u.8.8.8.8.8.8.u.8.-.u.8.8.8.8.8.8.8.8.",
"8.8.8.8.8.8.8.8.8.8.8.8.8.u.6.8.u.1.u.6.8.8.1.u.a i 8.8.) 8.8.8.8.8.8.8.8.8.8.8.8.8.8.1.) u.) u.1.8.",
"8.8.u.8.e.8.8.8.8.8.1.8.8.1.8.8.8.u.1.6.8.8.8.u.w q 8.u.8.8.8.8.%.8.8.8.8.8.8.8.8.8.8.1.u.6.u.u.8.8.",
"1.6.-.-.-.%.%.%.) ) %.) ) ) ) ) ) -.6.{ 1.1.1.1.q : 1.-.-.-.1.1.{ -.-.-.8.1.%.-.%.%.) %.-.) ~ ~ ~ ~ ",
"6 6 6 1 6 6 5 > < < 4 & > 6 6 > & 4 6 8 8 8 9 9 5 O 7 6 6 7 0 q q 9 8 7 6 > 1 9 6 < > > > # o X . . ",
"a a a a M H H  .H *.H 9 q H M M a a a M M M c a M M M a f M P P  .H z a y 0 < M a a y y l w w y y y ",
"8.u.8.8.1.8.8.8.u.1.1.9 f 1.8.8.) 8.8.8.8.8.1.1.1.8.1.u.{ 8.8.8.8.8.8.8.8.P 6 ) u.u.8.u.8.8.1.1.%.6.",
"8.8.8.8.8.8.8.8.1.u.1.9 a 1.8.8.8.8.8.8.8.8.8.8.1.u.8.1.8.8.8.8.8.8.1.8.8.o.9 ) 8.8.8.e.8.8.8.8.8.8.",
"{ 8.8.8.8.8.8.8.u.1.8.0 M 1.8.8.8.8.8.8.8.8.8.8.8.6.u.8.8.8.1.8.8.8.8.u.u.*.9 ) 8.8.8.8.8.8.8.8.8.8.",
"8.8.8.8.8.8.8.8.8.8.8.q M 8.8.8.8.1.u.1.6.8.8.1.1.3.8.u.8.8.8.8.8.8.8.8.8.P 9 %.8.u.u.1.6.8.8.1.-.{ ",
"8.8.8.%.8.8.8.8.8.8.1.0 H 8.8.8.) P M M y a M M M a M P P ~ %.-.-.-.%.-.8. .8 P ' o.P P  .H H M H -.",
"2 5 5 5 < > > : # O o O < > = : = < 1 6 6 6 1 * . X O o X X o o o o o o X X . . . . X o o O O O o X ",
"8.8.8.8.8.8.8.8.8.q.8.8.8.8.8.8.1.1.3.1.u.6.6.u.0 q 8.8.8.1.8.8.8.8.u.8.8.8.%.8.u.-.u.u.8.8.{ 1.6.u.",
"8.8.8.8.8.8.8.8.8.8.8.8.u.-.8.8.8.8.8.8.8.8.u.1.j e 1.8.8.8.8.8.8.8.8.8.8.8.8.8.1.u.1.u.1.u.1.u.8.8.",
"1.8.8.8.8.8.8.8.8.e.e.8.8.8.8.8.8.8.8.8.1.8.1.6.z l 8.8.8.8.1.1.1.u.8.8.1.1.6.8.u.1.u.1.u.1.u.1.8.8.",
"u.1.8.8.8.8.8.8.8.8.8.q.8.e.8.e.8.8.8.8.u.8.8.u.a e 8.8.8.8.8.8.8.8.8.8.8.8.) 8.6.u.1.u.1.u.1.u.1.1.",
"1.u.1.1.8.8.8.8.q.8.8.1.8.e.8.8.8.8.8.8.u.8.8.8.*. .8.1.8.8.8.8.8.8.8.8.8.8.8.-.u.) u.1.u.1.u.1.1.8.",
"M M M a a a j a y a e q i 9 9 q q q q q q i w q 6 0 e w w i q 9 0 9 8 8 7 6 5 6 5 4 7 9 9 9 9 9 0 i ",
"y a y y e y u a e w w 6 9 q 0 0 0 0 9 8 8 q q q q q w w q i q 0 0 0 0 0 0 9 O 0 0 0 q 0 0 9 9 6 9 q ",
"8.8.8.8.8.1.8.8.8.8.8.w  .8.8.u.) 1.q.1.8.q.8.8.8.8.8.8.8.8.8.8.8.8.8.8.1.A + ~ 8.8.8.8.u.u.8.8.8.8.",
"8.8.e.8.8.8.8.8.8.8.%.q o.8.8.8.8.1.8.8.8.1.8.8.8.8.8.8.8.8.8.8.8.8.8.8.8.H > ~ 1.8.u.8.8.8.8.8.8.8.",
"8.8.8.8.8.8.8.8.8.8.1.9 H 8.8.1.8.8.8.8.8.1.1.8.8.8.8.8.8.u.6.8.8.8.8.8.u.*.4 ' u.u.u.6.8.8.8.1.8.6.",
"8.8.8.8.8.8.1.8.8.3.3.9 l 8.8.1.8.8.8.8.8.1.6.8.8.8.8.8.8.a.8.8.8.1.8.8.1.H 7 6.u.8.8.8.8.6.8.8.1.1.",
") ) 1.8.1.1.8.8.3.1.1.9 q q.,.1.8.8.8.8.8.8.8.8.8.8.8.8.8.8.8.8.) 1.6.1.u.H 8 1.8.1.8.8.u.8.{ -.-.1.",
"O O + + + $ + $ + + $ o X O O $ @ # # % @ @ + O o O < 6 6 4 > & # @ O O + O X + $ O X X .         . ",
"8.6.8.-.8.8.8.8.6.6.8.8.8.8.8.8.8.8.8.8.8.8.8.8.9 0 8.8.u.1.u.1.u.1.%.8.u.1.u.6.) -.~ M a P  .o.-.{ ",
"8.u.) 6.8.8.8.8.%.6.8.8.u.8.8.8.8.1.8.8.8.8.8.8.q q 8.8.1.u.1.6.1.u.8.8.1.6.1.u.u.1.u.1.1.8.8.u.8.8.",
"8.u.8.8.8.8.8.8.8.8.8.8.8.8.8.8.8.8.q.8.8.8.8.8.i M 8.8.1.) u.6.8.8.%.8.u.1.u.1.1.u.1.u.8.8.8.8.%.8.",
"8.8.8.8.8.8.8.8.8.8.8.8.e.8.8.8.u.8.8.8.8.8.8.8.q M 8.8.u.1.u.u.8.1.u.8.1.u.1.u.u.1.u.1.8.8.8.8.u.u.",
"8.8.u.u.1.u.6.8.8.8.8.,.8.8.8.8.8.1.8.8.u.u.u.u.q M 8.8.u.8.1.u.8.q.u.6.8.1.1.1.8.8.8.8.8.1.1.1.u.6.",
"' o.P H *.H H `  .H z l M e w q i M H H *.P H P y q *.H H M H H H H M ` H A A M z V V a  .z H H H H ",
"a w q q 0 8 1 6 8 6 1 X + : % & & & * 4 6 8 0 0 0 9 9 9 8 5 5 2 6 6 6 7 7 6 + 1 5 1 4 6 6 6 7 9 9 q ",
"8.8.u.-.-.) ) ) 8.) ) + 0 -.o.%.) ~ o.' { -.1.8.u.%.) 8.{ 8.) ) ) -.) u.8.H = ~ %.%.-.-.u.1.1.6.) u.",
"8.8.8.8.8.8.8.8.8.8.%.# q 8.8.8.u.6.%.u.1.u.8.8.8.8.8.8.u.u.8.8.8.8.8.8.8.M = ~ %.8.8.8.8.8.8.8.u.1.",
"8.8.8.8.8.e.8.8.8.u.%.: l 8.8.8.8.8.u.1.8.8.8.8.8.8.8.8.8.8.8.8.8.8.8.8.8.0 & %.8.8.8.8.8.8.8.e.{ u.",
"8.8.8.8.8.8.8.q.8.u.-.6 z 8.8.8.1.6.6.1.8.8.8.1.8.8.u.8.8.8.8.8.8.8.8.8.8.8 : %.8.8.8.8.8.8.-.8.u.1.",
"8.8.8.8.8.8.8.8.8.8.P 4 M 8.8.8.-.' P ) ) 8.8.u.8.8.8.8.8.8.8.8.8.8.8.%. .= = %.8.8.8.8.8.8.8.8.1.u.",
"= & & 6 9 9 8 8 9 @ o   # = @ $ $ & % O O # > 4 4 4 < 4 4 4 4 5 5 & $ + @ o + 7 5 > = : % $ $ + @ * ",
"M P 8.8.o.P o.P ~ ) u.) P P P ~ u.8.6.-. .A P P 5 0 M q 0 q q a H ~ ' 1.8.8.8.%.%.1.8.8.%.! P P ~ ) ",
"8.8.8.u.1.1.u.1.6.1.u.8.8.8.1.8.u.8.8.8.q.8.1.u.i y 8.8.1.u.1.u.1.6.6.1.8.8.8.8.1.8.1.8.1.u.1.u.1.u.",
"8.8.8.8.u.1.u.u.1.6.8.8.8.8.8.8.u.8.8.8.8.8.u.u.H M 8.8.u.1.u.1.6.-.8.6.8.8.8.8.8.8.u.1.u.1.u.1.1.) ",
"8.8.8.8.8.8.8.8.8.8.8.8.8.8.8.8.8.8.8.8.8.8.8.8.H M 8.8.8.8.8.8.8.8.8.8.8.8.8.8.8.8.8.8.8.8.8.8.8.8.",
"8.8.8.8.8.8.8.8.8.8.8.8.8.8.8.8.8.8.8.8.8.8.8.8.H M 8.8.8.8.8.8.8.8.8.8.8.8.8.8.8.8.8.8.8.8.8.8.8.8."
};
