/* XPM */
static char *c58e9939d83e4a6daa49fbf52c2c8a071i9s8320NOJxoDAF[] = {
/* columns rows colors chars-per-pixel */
"50 50 127 2 ",
"   c #35231F",
".  c #39241F",
"X  c #352321",
"o  c #3A2420",
"O  c #45261F",
"+  c #4C261F",
"@  c #56271F",
"#  c #54281F",
"$  c #5C291F",
"%  c #642A1F",
"&  c #6C2B1F",
"*  c #732B1F",
"=  c #7D2C1F",
"-  c #442521",
";  c #4B2620",
":  c #4D2822",
">  c #522720",
",  c #572821",
"<  c #5C2820",
"1  c #632920",
"2  c #6D2B20",
"3  c #732C20",
"4  c #7B2D20",
"5  c #842E1E",
"6  c #8C2F1F",
"7  c #922F1F",
"8  c #8C301E",
"9  c #93301F",
"0  c #9C311E",
"q  c #A4321F",
"w  c #AB331F",
"e  c #B3351E",
"r  c #BD361E",
"t  c #BE381F",
"y  c #842E20",
"u  c #8C2F21",
"i  c #943020",
"p  c #993120",
"a  c #A53320",
"s  c #AC3320",
"d  c #B33520",
"f  c #B93520",
"g  c #C4371E",
"h  c #CC371F",
"j  c #C2381E",
"k  c #CD381E",
"l  c #D63B1C",
"z  c #D63B1D",
"x  c #D4381F",
"c  c #D7391E",
"v  c #D53A1E",
"b  c #D63B1F",
"n  c #D6391D",
"m  c #D3391F",
"M  c #DA391D",
"N  c #D83A1D",
"B  c #D93A1D",
"V  c #DB3A1D",
"C  c #D83A1F",
"Z  c #DB3A1E",
"A  c #DA3B1E",
"S  c #DC381D",
"D  c #DE3B1C",
"F  c #DD391E",
"G  c #DC3B1E",
"H  c #DE3A1E",
"J  c #DF3A1E",
"K  c #DE3A1F",
"L  c #DF3B1F",
"P  c #DB3B1E",
"I  c #E03B1D",
"U  c #E23A1D",
"Y  c #E03B1F",
"T  c #E33B1E",
"R  c #E43B1E",
"E  c #E53C1D",
"W  c #E73D1C",
"Q  c #E43C1F",
"!  c #E73C1E",
"~  c #E33B1D",
"^  c #EB3D1B",
"/  c #EF3C1B",
"(  c #EA3B1E",
")  c #ED3B1D",
"_  c #EB3C1D",
"`  c #EA3D1D",
"'  c #E93C1E",
"]  c #EB3C1F",
"[  c #EA3D1F",
"{  c #EF3C1C",
"}  c #EE3D1C",
"|  c #EF3E1D",
" . c #EC3D1E",
".. c #EE3C1E",
"X. c #EF3C1E",
"o. c #EF3D1F",
"O. c #ED3C1D",
"+. c #F03B1C",
"@. c #F03D1C",
"#. c #F13C1D",
"$. c #F03D1D",
"%. c #F13E1D",
"&. c #F23E1D",
"*. c #F13C1F",
"=. c #F03D1F",
"-. c #F23D1E",
";. c #F13E1E",
":. c #F03F1E",
">. c #F03D1D",
",. c #C13621",
"<. c #C33720",
"1. c #C43620",
"2. c #D03820",
"3. c #D13921",
"4. c #DB3920",
"5. c #DA3A20",
"6. c #DD3920",
"7. c #DF3B20",
"8. c #E33B20",
"9. c #E03C20",
"0. c #E73C20",
"q. c #E33B20",
"w. c #E93B20",
"e. c #EE3C20",
"r. c #EE3C20",
"t. c #F13E20",
"y. c #F13E20",
/* pixels */
"=.=.=.@.@.@.=.@.=.@.} * k =.=.=.@.=.@./ @.@.+.=.@.@.=.@.&.+.=.@.@.@.=.@.@.L 5 ! ) @.@.@.@.=.=.=.@.@.",
"@.=.@.@.=.@.=.@.} @.` 6 l @./ @./ =.@.=.=.@.=.@.@.=.=.@.@.@.=.=.=.=.=.@.@.N 9 ` =.=.+.=.@.@.@.@.@.=.",
"@.@.=.=.@.=.@.@.@.=.) 0 l =.@.@.=.@.=.@.=.@.=.=.@.@.@.@.@.=.@.=.@.@.+.+.) L q =.@.=.@.@.@.=.@.=.=.=.",
"=.@.@.@.@.@.@.=.@.=.} e v +.=.=.@.@.=.@.@.@.@.) +.=.=.@.@.@.@.@.=.=.=.+.=.I r ) @.@.@.=.@.=.@.@.@.@.",
"=.=.=.} =.=.@.@.=.} ` q j L N v k g f e e e r j g h h h g j j j t t t r t e s E L m j e q q q q e r ",
"w a q q 0 0 q w q w e q a t e w 0 7 5 4 5 = 5 9 = 5 e q q y = 6 5 5 5 5 5 9 i 9 9 7 9 6 6 y & * = = ",
"@.=.@.=.@.=.) ) +.=.@.=.) ) @.@.=.@.@.@.=.@.=.=.g j =.@.@.@.+.+.=.=.+.=.=.@.@.@.=.@.=.=.+.+.=.@.) =.",
"=.@.@.=.@.@.@.=.@.@.=.+.@.=.=.@.@.=.=.@.=.@.@.@.g j @.@.=.=.=.=.+.@.@.@.@.=.=.@.} @.@.@.=.=.=.@.@.=.",
"=.@.=.@.=.@.=.=.@.=.@.@.@.@.@.@.@.@.=.=.@.@.@.=.h g @.@.=.@.@.=.=.=.@.=.@.=.=.@.@.=.=.=.=.@.@.=.@.@.",
"@.@.=.@.=.=.@.@.} @.@.=.=.@.@.=.=.=.@.=.=.=.@.=.k j =.=.=.=.=.@.=.=.@.@.} @.@.=.=.@.@.=.@.@.@.) @.=.",
") ) ) =.) ) ' ' w.` ` ` ) } ` ` } ) ) ) ^ ) / +.j = ) =.=.) @.) ) ) ) ) ) =.@.) =.} ) ) ) ) W E E E ",
"p 0 9 9 i 0 9 5 5 6 8 * 5 9 8 5 * 8 p 0 q q w w 9 # 0 9 9 0 e t f w q 0 9 5 8 w 9 5 y 8 5 & + O o . ",
"k v v m m N N I I L N w g N N v k m m v v l x m m l m v m N I I I L l 3.k e y N v m k k k k k m k k ",
"=.=.=.@.@.=.@.=.=.=.) q m =.=.) =.=.=.} =.@.@.=./ =.@.=.) =.=.=.@.=./ +./ L 0 ` @.@.=.=.@.@.=.@.=.=.",
"=.=.@.@.@.@.=./ @.@.=.a m =.@.@.@.=.@.@.=.@.@.@.) =.@.@.=.@.@.@.@.@.=.=.) q.s ) =.@.@.@.@.=.@.=.@.@.",
"@.@.@.=.=./ @.@.=.@.=.r m ) =.} @.@.@.=.@.@.=.=.@.=.=.@.@.@.=.@.=.@.=.=.) ! w ` @.=.@.=.@.=.@.=.=.@.",
"=.@.@.@.@.@.@.=.@.@.:.g G =.=.=.=.@.=.@.} @.=.=.@.=.} @.=.+.@.=.) =.=.=.=.I s ) =.=.=.@.+.=.=.+.@.) ",
"@.@.=.=.=.=.@.) @.=.:.e G @.@.) ` I v m k m N v l l m L I ' } ) ) ) ) ) =.I q E E I I I L N N B D ) ",
"9 9 9 8 5 y 5 = & $ O @ 5 5 5 = 5 5 6 9 9 0 8 = X O @ + O - # + + + # ; O . . . . . ; + # # # # + - ",
"@.=.@.@.=.=.@.@.@.=.@.=.@.%.@.=.=.@.=.@.@.=.=.@.e r +.=.) =.=.+.@.=.=.@.=.=.=.@.=.=.@.=.=.@.=.@.@.=.",
"@.@.=.@.@.=.@.=.=.@.@.=.=.=.=.@.@.@.=.@.@.=.@.=.m k @.@.=.=.@.@.@.=.@.@.} =.@.=.@.@.@.@.=.@.@.=.=.@.",
"=.@.=.@.@.=.@.&.=.@.@.@.@.@.@.@.@.=.@.@.@.@.@.=.v m =.=.:.=.@.=.@.=.@.=.@.@.@.@.} @.=.@.=.@.@.=.@.=.",
"@.=.@.@.@.@.=.:.@.=.=.@.=.@.@.@.+.@.=.=.=.=.=.@.v k @.@.@.=.@.@.@.@.@.=.@.=.@.=.=.=.@.@.@.@.@.@.@.:.",
"@.@.@.=.=.@.@.) @.=.@.=.@.@.=.=.=.@.@.@.@.@.@.@.9.N =.@.=.@.@.=.=.+.@.@.@.@.=.) @.@.@.=.@.=.=.@.=.@.",
"v m m m m v x m k k k g g e a t r t r r j g h r 0 d k k k g r e e q w q p 9 u 0 9 5 0 e w w q w e g ",
"k k k m k k k k k h g 0 w r d r e e s q q t g t t 1.g h h g t e e e e r e q , e r r e e e w w 0 w t ",
"+.@.=.=.=.@.=.=.@.=.} h L @.@.@.) } @.@.@.=.=.@./ =.@.@.@.@.) =.@.@.@.%.=.l % E ) ) @.=.@.@.@.=.} @.",
"=.=.@.=.@.@.=.@.=.=.) j I =.=.@.} =.=.@.@.@.@.@.) =.=.@.=.=.@.@.=.@.@.=.=.N 5 ` =.=.=.@.@.=.} @.@.=.",
"@.@.} =.@.@.=.@.) =.} w G @.@.=.=.@.=.@.@.@.=.=.=.@.@.=.=.@.+.=.@.=.@.=.) L 7 ` @.=.=.@.@.=.@.=.=.@.",
"=.=.@.} =.@.=.@.@.@.=.q k @.=.@.@.@.=.@.=.@.@.@.@.@.=.@.@.@.@.@.=.:.@.@.=.l 0 ) } @.@.:.@.=.@.} @.@.",
"` ) } } =.) +.=.=.=.@.w g =.=.=.:.) @.@.=.@.=.=.) =.) =.@.=.=.@.) :.=.:.=.G a ) ) ) =.=.=.@.=.) ) =.",
"@ @ % % % $ % % % % $ + O # @ % 2 * & & & & % $ + @ y 0 0 9 5 * & & @ @ % @ - 1 % # + O . X X X   . ",
"=.@.=.@.=.@.@.@.=.@.@.@.=.=.@.@.@.=.@.@.@.=.@.@.q e =.@.=.@.@.@.=.@.` =.=.@.@.@.=.=.' x m I I ! ' =.",
"=.@.=.@.@.@.=.@.@.@.=.@.@.@.@.=.=.@.@.=.@.@.@.=.r g =.@.@.@.=.@.@.@.=.=.@.@.=.@.@.@.@.@.=.@.) / @.=.",
"@.=.@.@.=.=.=.@.=.=.@.@.@.=.@.=.=.@.=.@.@.@.=.=.g l @.@.@.=.@.=.@.@.@.=.@.=.@.=.@.@.=.=.@.@.=.=.@.@.",
"@.@.@.=.@.@.@.=.@.@.@.=.@.@.@.@.@.@.@.=.=.@.@.@.j v @.=.@.=.@.=.@.=.@.@.=.&.@.@.=.@.@.@.=.=.@.@.=.@.",
"=.@.} ) =.@.=.=.=.) =.+.=.=.@.@.=.=.@.@.=.:.@.=.g x +.=.=.@.) =.=.+.) =.@.) @.=.@.=.@.=.@.@.@.=.=.@.",
"E E L L L L 6.N N L N M v k g t g N N L I I I I h j N L L N N L L D L L N G B N N v v v B B L N L I ",
"x g j r e q 7 9 q 0 u o % * * * = * y 5 9 w e e e w w q q 7 9 9 9 7 0 0 0 9 % 5 7 5 9 9 9 0 0 q w e ",
"=.} =.=.} ) ` ` ) ` ' % r ' } ` ' ! ! ` ` ` ) =.} ) =.) ) ` ' ) ' ' } ) =.N 5 ! =.=.) ) =.) =.=.@.=.",
"=.@.+.@.@.@.@.=.=.=.` & g =.@.} =.@.=.@.=.@.@.@.@.@.@.=.=.@.@.@.=.@.@.@.=.N 5 ` @.@.=.@.@.@.=.=.@.@.",
"=.=.@.@.=.=.=.@.@.=.) * m ) =.=.@.=.=.@.=.@.=.@.@.=.@.@.@.@.=.=.@.@.=.=.=.e 2 E @.=.@.@.=.@.=.@.@.=.",
"@.@.=.@.@.@.@.@.@.@.) q v @.@.@.) =.=.=.@.@.@.@.=.=.@.=.@.=.=.@.=.@.@.@.@.q = ` @.@.=.=.@.@.@.=.=.@.",
"=.@.@.@.=.+.=.=.=.@.I 6 v @.=.@.e.E E ` @.=.=.@.@.@.=.@.@.=.+.=.=.@.=.=.N = 5 =.=.@.@.@.=.=.@.@.=.) ",
"= * * 0 e s 0 a e * + X & 4 * % $ * * @ , * 5 8 8 8 8 6 8 9 6 u 6 = $ $ % : % 0 i y = = & $ % % * 4 ",
"B I @.=.` I I I I ) =.` I I L E @.:.=.` I l I I 9 e v j e r j 2.I ` E ) @.@.=.=.) ) ) @.} E I I E ) ",
"@.=.=.@.=.@.@.@.=.=.=.@.@.@.=.=.=.@.@.@.=.=.:.=.h h =.=.@.=.=.| =.@.=.@.=.=.@.@.=.=.@.=.@.=.=.=.@.@.",
"@.@.=.:.@.@.=.=.@.@.@.@.=.=.@.@.@.@.=.=.@.@.) ) G v @.@.=.@.@.@.@.@.=.@.@.@.=.=.@.@.@.=.@.@.@.=.=.@.",
"=.@.=.@.@.@.=.@.=.@.@.@.=.@.=.@.@.=.@.=.@.@.@.=.G m } @.=.@.=.@.@.=.@.=.@.@.@.=.@.=.@.@.@.=.@.=.@.@.",
"=.@.@.@.=.@.=.@.@.@.=.@.=.@.@.@.@.@.@.=.@.=.@.@.L v =.@.=.@.@.@.@.@.@.=.@.=.@.@.@.=.@.=.@.@.@.=.@.=."
};
