/* XPM */
static char *b50eb13fa6744861cef25ed25a7424e3e2H5V3cvssHZh9Qj[] = {
/* columns rows colors chars-per-pixel */
"50 50 151 2 ",
"   c #3B3701",
".  c #3D3900",
"X  c #433D01",
"o  c #483E01",
"O  c #474300",
"+  c #4E4501",
"@  c #504600",
"#  c #534C00",
"$  c #5A4F00",
"%  c #565100",
"&  c #5A5301",
"*  c #635400",
"=  c #645A00",
"-  c #6B5D00",
";  c #715E00",
":  c #6D6200",
">  c #726101",
",  c #786600",
"<  c #756800",
"1  c #7C6C00",
"2  c #7D7000",
"3  c #826F00",
"4  c #837300",
"5  c #8A7600",
"6  c #8C7A00",
"7  c #917E01",
"8  c #8B8000",
"9  c #958200",
"0  c #9B8500",
"q  c #9E8900",
"w  c #A08500",
"e  c #A38B00",
"r  c #A88F01",
"t  c #A69000",
"y  c #AC9300",
"u  c #AE9902",
"i  c #B19500",
"p  c #B59B00",
"a  c #BA9D00",
"s  c #B4A001",
"d  c #BEA401",
"f  c #C3A601",
"g  c #C8A600",
"h  c #C4A900",
"j  c #CBAC01",
"k  c #D3AF00",
"l  c #CFB101",
"z  c #D3B401",
"x  c #D9B601",
"c  c #D7B901",
"v  c #DBBC01",
"b  c #E1BD00",
"n  c #E3C102",
"m  c #E2C100",
"M  c #E5C000",
"N  c #E6C101",
"B  c #E4C200",
"V  c #E5C300",
"C  c #E4C201",
"Z  c #E7C200",
"A  c #E7C300",
"S  c #E4C103",
"D  c #E7C202",
"F  c #E1C700",
"G  c #E4C400",
"H  c #E5C500",
"J  c #E7C600",
"K  c #E5C300",
"L  c #E8C400",
"P  c #E9C500",
"I  c #E9C501",
"U  c #E8C700",
"Y  c #EBC700",
"T  c #ECC402",
"R  c #EBC600",
"E  c #E4C900",
"W  c #EACB00",
"Q  c #EBCB00",
"!  c #ECC800",
"~  c #EEC801",
"^  c #EDCA00",
"/  c #EFCA00",
"(  c #EECB00",
")  c #ECC802",
"_  c #ECCB02",
"`  c #EFCB03",
"'  c #EFCC00",
"]  c #EFCC01",
"[  c #EECE01",
"{  c #ECC900",
"}  c #F1C701",
"|  c #F3CA00",
" . c #F4CB00",
".. c #F0CD01",
"X. c #F2CC00",
"o. c #F1CE00",
"O. c #F6CD01",
"+. c #F5CF00",
"@. c #F4CE01",
"#. c #F3CD01",
"$. c #F4D000",
"%. c #F5D100",
"&. c #F7D200",
"*. c #F4D002",
"=. c #F3D100",
"-. c #F8D000",
";. c #FBD100",
":. c #FBD301",
">. c #FFD300",
",. c #FBD601",
"<. c #FCD400",
"1. c #FCD500",
"2. c #FDD501",
"3. c #FFD600",
"4. c #FED700",
"5. c gold",
"6. c #FFD701",
"7. c #FCD702",
"8. c #FED602",
"9. c #FCD401",
"0. c #FBD800",
"q. c #FCD800",
"w. c #FDD900",
"e. c #FFD800",
"r. c #FFD900",
"t. c #FFD801",
"y. c #FCDA00",
"u. c #FCDB00",
"i. c #FDDB00",
"p. c #FEDA00",
"a. c #FFDA00",
"s. c #FEDB00",
"d. c #FFDB00",
"f. c #FFDA01",
"g. c #FFDB01",
"h. c #FFD802",
"j. c #FFD902",
"k. c #FDDA02",
"l. c #FEDA02",
"z. c #FFDB02",
"x. c #FFDA03",
"c. c #FDDD00",
"v. c #FEDC00",
"b. c #FFDC00",
"n. c #FFDD00",
"m. c #FEDC01",
"M. c #FEDE00",
"N. c #FFDE00",
"B. c #FFDC02",
"V. c #FFDD02",
"C. c #FFDB00",
/* pixels */
"d.d.d.d.d.d.d.d.d.d.,.1 v d.d.d.d.d.d.d.d.d.d.d.d.d.d.d.d.d.d.0.c.d.d.d.d._ 6 ,.d.d.d.d.d.d.d.d.d.d.",
"d.d.d.d.d.d.d.V.d.d.d.0 A d.d.d.d.c.d.c.d.d.d.d.d.c.d.d.d.d.d.c.d.d.d.d.d.( q ,.c.d.d.d.d.d.d.d.x.d.",
"d.d.d.c.d.d.d.d.d.d.d.t I d.c.d.d.d.d.d.c.d.d.d.d.d.d.d.d.d.d.d.d.d.0.x.d.( p d.d.d.d.d.c.d.c.d.d.d.",
"d.c.d.c.d.c.d.d.d.d.d.g F d.d.d.d.c.d.d.8.c.d.c.d.c.d.d.d.c.d.x.d.c.c.V.d...j d.c.d.d.d.d.d.d.d.d.d.",
"x.d.d.d.d.8.d.d.d.8.8.p z ( W I b z j d d f j z c x c c z z z z z j z k z d a ..] n z f i u p p d h ",
"a p p u y i i p u a f p u l f p u q 7 5 6 6 9 q 5 9 f p u 7 6 9 6 6 5 9 0 q e e e q e 0 0 9 1 1 6 4 ",
"d.d.d.x.d.d.d.d.d.d.d.c.8.d.d.c.d.d.d.d.c.d.d.d.x z d.d.d.d.d.d.d.d.d.d.c.d.d.d.d.d.d.d.d.d.d.d.d.d.",
"d.d.d.d.d.d.d.d.d.d.d.d.d.d.d.d.d.d.d.d.d.d.c.d.z z d.d.d.d.d.d.d.d.d.d.d.d.d.c.d.c.d.d.d.d.0.c.d.d.",
"d.d.d.d.d.d.d.d.d.d.d.d.d.d.d.d.c.d.d.d.d.d.d.d.v x d.d.d.d.d.d.d.d.c.d.d.d.d.d.d.d.d.d.d.d.d.d.d.c.",
"d.d.u.d.d.d.d.d.d.d.d.d.d.d.d.d.d.d.d.d.c.d.d.d.v z d.c.c.d.0.d.d.d.c.d.c.d.d.d.d.d.d.d.d.d.d.d.d.d.",
"d.d.d.8.d.8.8.8.,.d.,.0.8.d.8.d.,.d.8.d.d.d.d.8.z 5 0.d.8.d.0.c.d.8.d.d.d.d.h.d.8.8.8.d.d.8.,.-.-.-.",
"r r e q e t q 6 7 9 9 3 7 e q 6 4 7 r u i i a a q * u t e u h j h d i t e 7 0 a q 9 7 9 8 , $ @ X X ",
"v n C C C T W ( ....( p z T I C v n C I C C A b C C C C n I | $...W I b n d 7 W I C b v v b v c v v ",
"c.c.d.d.d.d.d.c.d.d.d.u C c.d.d.c.d.c.d.d.d.c.d.d.d.d.d.d.d.d.d.d.d.d.c.d.( t d.c.d.d.d.d.d.d.d.c.c.",
"d.d.d.d.d.d.d.d.d.d.d.a b d.d.c.d.d.d.c.d.d.d.c.d.d.c.d.d.c.d.d.d.c.c.d.d.$.a 0.d.d.d.d.d.c.c.d.c.d.",
"d.c.d.d.d.d.d.d.d.d.d.f A c.d.d.d.d.d.d.d.d.d.d.d.d.d.d.d.d.d.d.d.c.d.d.c.*.a ,.d.d.d.d.d.d.d.d.c.d.",
"d.c.x.d.d.d.d.d.d.d.c.z I d.d.d.d.d.d.d.c.x.d.c.d.c.c.c.d.d.c.d.d.d.d.d.c.#.d 8.c.d.d.d.d.d.d.c.d.d.",
"d.0.d.d.d.d.d.d.d.d.d.d ( d.d.d.9.#.A C v F A I N C C I #.9.8.d.d.d.d.8.d...a $.-.-.#...] ( T I | 8.",
"e e q 0 9 7 6 4 , = + = 7 7 6 5 5 7 q e t e 0 5 . @ = $ + O & $ # @ & # + o . . X o @ $ $ % & & # + ",
"d.d.d.d.d.d.d.d.d.d.d.d.c.c.c.c.c.c.c.8.d.d.d.d.f j d.d.d.d.c.0.c.c.d.d.d.d.c.c.8.c.d.d.d.d.d.d.c.c.",
"d.d.d.d.d.d.c.d.d.d.V.d.d.d.d.d.d.d.d.d.d.d.d.d.D v V.d.d.d.c.d.d.d.d.d.c.d.c.d.d.d.d.c.d.d.d.d.d.d.",
"d.d.d.d.d.d.d.d.d.d.d.u.d.d.d.d.c.d.d.d.d.d.d.d.E b d.d.d.d.d.c.d.d.d.0.d.d.d.d.d.d.0.d.d.d.c.d.d.d.",
"d.d.d.d.0.d.d.d.d.d.d.d.d.d.d.d.c.d.d.d.d.d.d.c.S v d.d.d.d.d.d.d.d.d.d.d.d.d.d.d.d.d.d.d.d.d.d.d.x.",
"d.d.d.0.d.d.d.d.d.d.0.d.c.d.d.d.c.d.d.d.d.d.d.d.| ( d.d.d.d.d.d.d.d.d.d.d.c.d.d.d.d.d.d.d.d.d.d.d.d.",
"n C D A F C C A b b v z z f p k k j j j z z c j t d v b b z j f d p p i y r q e e 7 t f d p p s f z ",
"b b b v v v m v b c x r d j h f f g d u p z x z z z z c c x l g h f h h f u * h j j f g f f p t a z ",
"c.d.d.c.d.c.d.d.d.d.d.z | d.c.d.d.d.d.d.x.d.d.d.d.c.c.d.0.d.x.d.d.c.c.d.d.T : $.d.d.d.c.d.d.d.d.d.d.",
"c.d.c.d.d.d.d.d.d.d.d.z $.d.d.d.d.d.d.d.V.V.d.c.d.d.x.d.V.d.d.d.V.x.d.d.c.T 6 d.d.d.d.d.d.d.d.d.d.d.",
"d.c.d.d.d.d.c.d.d.d.d.d ( c.d.d.d.d.d.d.d.d.c.d.d.c.d.d.c.d.c.d.d.d.c.c.c.( q :.d.d.d.d.d.d.d.d.d.d.",
"d.c.d.d.d.d.d.d.d.d.d.u c d.d.d.d.d.d.d.d.x.d.d.c.c.x.d.d.d.d.d.c.c.x.d.d.W t d.d.d.d.d.d.c.d.c.d.d.",
"8.,.c.c.d.d.d.d.d.d.d.d z c.c.d.c.d.d.d.c.d.d.d.8.d.d.d.d.x.d.d.d.d.d.d.x.W p c.c.0.d.d.c.c.8.8.d.,.",
"= * - : - = : - ; > = # @ & = - < 1 , < < < : = $ * 9 t t q 7 3 , , & = - * O : - & # O .         X ",
"d.d.d.d.c.d.d.d.d.d.d.d.d.d.d.d.d.d.d.d.d.d.d.d.p f d.d.d.d.d.d.d.d.,.x.d.d.d.d.d.8.8.C C #.#.*.,.c.",
"0.d.d.c.d.d.d.d.d.d.d.d.d.d.c.d.d.d.8.d.d.d.d.d.j c d.d.d.d.d.d.d.d.0.d.d.d.d.d.d.d.d.d.d.d.d.d.d.d.",
"d.d.c.d.d.c.d.d.d.d.d.d.d.d.d.d.d.d.d.c.d.c.c.d.z C d.d.d.c.d.d.c.d.c.c.d.d.c.d.d.d.0.c.d.d.d.d.d.d.",
"d.d.d.d.d.d.d.d.d.d.0.c.d.d.d.x.d.d.x.8.d.0.d.d.c C 8.d.d.d.c.d.d.d.d.d.d.d.d.c.d.d.c.c.d.d.d.c.c.d.",
"d.d.c.d.c.d.c.d.d.d.c.0.d.d.c.c.d.d.0.d.d.c.d.c.z A d.d.d.d.8.d.d.c.d.d.d.d.c.c.c.c.d.d.c.d.c.d.d.c.",
"-.*.#.| | W T ( W ( W I C b z l z F W W  . ...#.z z | W ( W W W ( T W W ( I J A I A A N I I ( } | ..",
"b z l j f u q e u e 0 o : 4 2 4 5 4 5 9 r p f h h p a p y e q e e e r t y e > 0 q 0 q q r t i i a h ",
"d.d.c.c.d.d.8.8.d.8.-.> j d.,.,.d.-.9.,.,.8.d.d.d.d.d.d.8.8.8.d.d.d.8.d.d.I 6 -.8.8.d.8.d.d.d.d.d.d.",
"d.c.d.d.d.d.d.d.d.d.8., c d.d.d.c.d.d.d.d.d.d.d.d.d.d.d.d.d.d.d.d.c.d.d.c.T 6 ,.d.d.d.d.d.d.d.d.d.d.",
"d.d.c.d.d.d.d.d.d.d.8.4 v c.d.d.d.d.d.c.d.d.d.d.d.d.d.c.d.d.d.d.d.d.d.d.c.f 1 ,.d.d.d.d.d.d.d.d.d.d.",
"d.c.c.d.d.d.d.d.d.d.d.y C d.d.d.c.d.d.c.d.d.c.d.d.d.0.c.d.x.d.d.d.d.d.d.c.i 5 8.c.d.d.d.d.d.d.d.d.d.",
"x.d.d.7.d.d.d.d.d.d. .0 I c.d.d.8.9.$.7.d.0.c.d.d.d.d.d.d.d.d.d.d.d.d.8.( 6 5 d.d.d.d.d.x.d.d.d.d.d.",
"5 2 3 t d a i p f 1 #   1 5 1 : = 2 2 * = 2 9 9 9 9 9 0 0 0 0 q 0 5 - - > $ : y e 7 5 3 > - : : 1 4 ",
"I  .d.x.8.#.#.#.*.d.c.8.#.#.#.-.d.d.c.8.$.T ..#.e f I z j h k b | -.-.d.d.c.d.8.8.d.d.d.d.$...( -.8.",
"c.d.d.d.d.d.d.d.d.d.d.d.c.d.c.c.d.d.d.d.c.c.d.c.c c d.d.d.d.d.d.d.c.c.c.c.d.d.d.d.d.d.d.c.d.d.d.d.d.",
"d.d.d.d.d.c.0.d.d.d.d.d.d.d.d.d.c.d.d.d.c.c.d.c.T F d.d.d.d.d.d.d.d.d.c.d.d.d.d.d.d.d.d.d.d.c.d.d.d.",
"d.d.d.d.d.d.d.d.d.d.d.d.d.d.d.d.d.d.d.d.d.d.d.d.I A c.d.d.d.d.d.d.d.d.d.d.d.d.d.d.d.d.d.d.d.d.d.d.d.",
"d.d.d.d.d.d.d.d.d.d.d.d.d.d.d.d.d.d.d.d.d.d.d.d.( C d.d.d.d.d.d.d.d.d.d.d.d.d.d.d.d.d.d.d.d.d.d.d.d."
};
